<?xml version="1.0" encoding="utf-8"?>
<!-- Generator: Adobe Illustrator 28.3.0, SVG Export Plug-In . SVG Version: 6.00 Build 0)  -->
<svg version="1.1" id="Capa_1" xmlns="http://www.w3.org/2000/svg" xmlns:xlink="http://www.w3.org/1999/xlink" x="0px" y="0px"
	 viewBox="0 0 180 30" style="enable-background:new 0 0 180 30;" xml:space="preserve">
<style type="text/css">
	.st0{fill:#F16522;}
	.st1{fill:url(#SVGID_1_);}
	.st2{fill:#EF4E23;}
	.st3{fill:url(#SVGID_00000159447623175624746700000014575188168999418557_);}
	.st4{fill:url(#SVGID_00000166643743584988991630000005374274151885309314_);}
	.st5{fill:url(#SVGID_00000179612868601280502390000008638546770123137681_);}
	.st6{clip-path:url(#SVGID_00000157988278070929557960000002667557037592429221_);}
	.st7{fill:#ED3424;}
	.st8{fill:url(#SVGID_00000051370284413911972670000001626603876748309650_);}
	.st9{fill:url(#SVGID_00000103959488863803140420000014578562840858715039_);}
	.st10{fill:#FFFFFF;}
</style>
<g>
	<g>
		<path class="st0" d="M61.7,20.5c-1.1-0.1-2.1-0.2-3.2-0.3c-1-0.1-2.1-0.1-3.1,0c-0.3,0.4-0.6,0.8-0.9,1.1c-0.5,0.6-1,1.1-1.6,1.6
			c-0.3,0.3-0.6,0.5-0.8,0.8c0,0-0.1,0.1-0.1,0.1l1.5,3.3l0.1-0.1c0.2-0.1,0.4-0.2,0.6-0.3c0.4-0.2,0.8-0.4,1.1-0.7
			c0.7-0.5,1.5-1,2.2-1.5c1.4-1.1,2.7-2.3,3.9-3.7C61.5,20.7,61.7,20.5,61.7,20.5z"/>
		<g>
			<linearGradient id="SVGID_1_" gradientUnits="userSpaceOnUse" x1="55.5382" y1="19.5466" x2="56.97" y2="23.951">
				<stop  offset="0" style="stop-color:#000000"/>
				<stop  offset="0.1543" style="stop-color:#3B1309;stop-opacity:0.8457"/>
				<stop  offset="0.3164" style="stop-color:#712511;stop-opacity:0.6836"/>
				<stop  offset="0.4748" style="stop-color:#9E3417;stop-opacity:0.5252"/>
				<stop  offset="0.6258" style="stop-color:#C13F1C;stop-opacity:0.3742"/>
				<stop  offset="0.7675" style="stop-color:#DB4720;stop-opacity:0.2325"/>
				<stop  offset="0.896" style="stop-color:#EA4C22;stop-opacity:0.104"/>
				<stop  offset="1" style="stop-color:#EF4E23;stop-opacity:0"/>
			</linearGradient>
			<path class="st1" d="M58.5,20.2c-1-0.1-2.1-0.1-3.1,0c-0.3,0.4-0.6,0.8-0.9,1.1c-0.5,0.6-1,1.1-1.6,1.6c-0.3,0.3-0.6,0.5-0.8,0.8
				c0,0-0.1,0.1-0.1,0.1L52,24c0.3-0.1,0.5-0.1,0.8-0.2c0.9-0.2,1.7-0.5,2.5-0.8c1.7-0.6,3.3-1.4,4.8-2.3c0.2-0.1,0.4-0.3,0.7-0.4
				C60,20.3,59.3,20.2,58.5,20.2z"/>
		</g>
		<path class="st2" d="M57.9,13c-3.2,0.6-6.2,1.5-9.1,2.7c-2.9,1.2-5.7,2.7-8.2,4.4c-2,1.4-3.9,2.8-5.6,4.5l0.6,1.3
			c2.1-1.2,4.2-2.2,6.5-3.1c2.7-1,5.4-1.8,8.2-2.2c2.8-0.4,5.5-0.6,8.3-0.5c1.1,0.1,2.1,0.1,3.2,0.3c1.1-1.3,2-2.6,2.9-4.1
			c0.8-1.3,1.4-2.7,2-4.2C63.6,12.2,60.7,12.5,57.9,13z"/>
		
			<linearGradient id="SVGID_00000029753086427488402670000001851213625005473446_" gradientUnits="userSpaceOnUse" x1="34.9618" y1="18.5553" x2="66.5378" y2="18.5553">
			<stop  offset="0" style="stop-color:#ED3424"/>
			<stop  offset="0.3129" style="stop-color:#FFFFFF"/>
			<stop  offset="0.3268" style="stop-color:#FDEBEA"/>
			<stop  offset="0.3576" style="stop-color:#FAC5C1"/>
			<stop  offset="0.3921" style="stop-color:#F7A29B"/>
			<stop  offset="0.4297" style="stop-color:#F4847B"/>
			<stop  offset="0.4713" style="stop-color:#F26B5F"/>
			<stop  offset="0.5183" style="stop-color:#F05749"/>
			<stop  offset="0.5731" style="stop-color:#EF4738"/>
			<stop  offset="0.6409" style="stop-color:#EE3C2D"/>
			<stop  offset="0.736" style="stop-color:#ED3626"/>
			<stop  offset="1" style="stop-color:#ED3424"/>
		</linearGradient>
		<path style="fill:url(#SVGID_00000029753086427488402670000001851213625005473446_);" d="M40.6,20.5c2.6-1.7,5.4-3.3,8.4-4.5
			c3-1.2,6.1-2.2,9.3-2.8c2.7-0.5,5.4-0.8,8.2-0.8c0-0.1,0.1-0.2,0.1-0.2c-2.9,0-5.8,0.3-8.6,0.8c-3.2,0.6-6.2,1.5-9.1,2.7
			c-2.9,1.2-5.7,2.7-8.2,4.4c-2,1.4-3.9,2.8-5.6,4.5l0.1,0.3C36.8,23.3,38.6,21.8,40.6,20.5z"/>
		
			<linearGradient id="SVGID_00000037662542709058152990000011515587178267244987_" gradientUnits="userSpaceOnUse" x1="35.5609" y1="22.0159" x2="61.6753" y2="22.0159">
			<stop  offset="0" style="stop-color:#EF4E23;stop-opacity:0"/>
			<stop  offset="1.166190e-02" style="stop-color:#C6411D;stop-opacity:1.489449e-02"/>
			<stop  offset="2.543026e-02" style="stop-color:#9D3317;stop-opacity:3.247933e-02"/>
			<stop  offset="4.092477e-02" style="stop-color:#772711;stop-opacity:5.226879e-02"/>
			<stop  offset="5.778145e-02" style="stop-color:#571C0D;stop-opacity:7.379802e-02"/>
			<stop  offset="7.639561e-02" style="stop-color:#3B1309;stop-opacity:9.757187e-02"/>
			<stop  offset="9.744069e-02" style="stop-color:#250C05;stop-opacity:0.1245"/>
			<stop  offset="0.122" style="stop-color:#140703;stop-opacity:0.1558"/>
			<stop  offset="0.1524" style="stop-color:#090301;stop-opacity:0.1946"/>
			<stop  offset="0.195" style="stop-color:#020100;stop-opacity:0.249"/>
			<stop  offset="0.3132" style="stop-color:#000000;stop-opacity:0.4"/>
			<stop  offset="0.5725" style="stop-color:#020100;stop-opacity:0.249"/>
			<stop  offset="0.6659" style="stop-color:#090301;stop-opacity:0.1946"/>
			<stop  offset="0.7325" style="stop-color:#140703;stop-opacity:0.1558"/>
			<stop  offset="0.7863" style="stop-color:#250C05;stop-opacity:0.1245"/>
			<stop  offset="0.8325" style="stop-color:#3B1309;stop-opacity:9.757188e-02"/>
			<stop  offset="0.8733" style="stop-color:#571C0D;stop-opacity:7.379800e-02"/>
			<stop  offset="0.9103" style="stop-color:#772711;stop-opacity:5.226880e-02"/>
			<stop  offset="0.9442" style="stop-color:#9D3317;stop-opacity:3.247935e-02"/>
			<stop  offset="0.9744" style="stop-color:#C6411D;stop-opacity:1.489449e-02"/>
			<stop  offset="1" style="stop-color:#EF4E23;stop-opacity:0"/>
		</linearGradient>
		<path style="fill:url(#SVGID_00000037662542709058152990000011515587178267244987_);" d="M52,18.1c-6.6,0-12.5,3-16.4,7.8
			c2.1-1.2,4.2-2.2,6.4-3.1c2.7-1,5.4-1.8,8.2-2.2c2.8-0.4,5.5-0.6,8.3-0.5c1.1,0.1,2.1,0.1,3.2,0.3C58.8,19,55.5,18.1,52,18.1z"/>
		<path class="st0" d="M51.8,18.4c3.2,0,6.3,0.7,9,2c0.3,0,0.6,0.1,0.8,0.1c-2.9-1.5-6.2-2.4-9.7-2.4c-6.6,0-12.5,3-16.4,7.8
			c0,0,0.1,0,0.1-0.1C39.6,21.3,45.4,18.4,51.8,18.4z"/>
		
			<linearGradient id="SVGID_00000132804228721909798800000000020277487045633426_" gradientUnits="userSpaceOnUse" x1="52.0062" y1="23.6855" x2="55.5108" y2="20.3582">
			<stop  offset="0" style="stop-color:#EF4E23"/>
			<stop  offset="6.315044e-02" style="stop-color:#F48062"/>
			<stop  offset="0.1266" style="stop-color:#F8AD99"/>
			<stop  offset="0.1856" style="stop-color:#FBD1C5"/>
			<stop  offset="0.2381" style="stop-color:#FDEAE5"/>
			<stop  offset="0.2823" style="stop-color:#FEF9F8"/>
			<stop  offset="0.3129" style="stop-color:#FFFFFF"/>
			<stop  offset="0.3504" style="stop-color:#FCE2DB"/>
			<stop  offset="0.4026" style="stop-color:#F9C0B0"/>
			<stop  offset="0.459" style="stop-color:#F6A18A"/>
			<stop  offset="0.5189" style="stop-color:#F4876A"/>
			<stop  offset="0.5834" style="stop-color:#F27250"/>
			<stop  offset="0.6542" style="stop-color:#F1623C"/>
			<stop  offset="0.7347" style="stop-color:#F0572E"/>
			<stop  offset="0.833" style="stop-color:#EF5025"/>
			<stop  offset="1" style="stop-color:#EF4E23"/>
		</linearGradient>
		<path style="fill:url(#SVGID_00000132804228721909798800000000020277487045633426_);" d="M55.3,20.2c-0.3,0.4-0.6,0.8-0.9,1.1
			c-0.5,0.6-1,1.1-1.6,1.6c-0.3,0.3-0.6,0.5-0.8,0.8c0,0-0.1,0.1-0.1,0.1L52,24c0,0,0.1-0.1,0.1-0.1c0.3-0.3,0.6-0.5,0.9-0.8
			c0.6-0.6,1.2-1.1,1.7-1.8c0.3-0.4,0.7-0.8,1-1.2C55.6,20.2,55.5,20.2,55.3,20.2z"/>
		<g>
			<defs>
				<path id="SVGID_00000067236304390502094010000001191218106529063826_" d="M67.5,11.5c2.7-1.9,4.4-5.1,4.4-8.6c0,0,0,0,0,0
					c-3.9,0-7.7,0.4-11.5,1C55.1,4.9,50,6.4,45.1,8.5c-4.9,2.1-9.5,4.7-13.9,7.7c-3.7,2.6-7.1,5.4-10.3,8.5l0.6,1.2
					c3.6-2.7,7.4-5,11.3-7c4.5-2.3,9.2-4.1,13.9-5.4c4.8-1.3,9.6-2,14.5-2.2C63.3,11.3,65.4,11.4,67.5,11.5z"/>
			</defs>
			<clipPath id="SVGID_00000173129747752616786300000010932425731141177473_">
				<use xlink:href="#SVGID_00000067236304390502094010000001191218106529063826_"  style="overflow:visible;"/>
			</clipPath>
			<g style="clip-path:url(#SVGID_00000173129747752616786300000010932425731141177473_);">
				<path class="st7" d="M67.5,11.5c2.7-1.9,4.4-5.1,4.4-8.6c0,0,0,0,0,0c-3.9,0-7.7,0.4-11.5,1C55.1,4.9,50,6.4,45.1,8.5
					c-4.9,2.1-9.5,4.7-13.9,7.7c-3.7,2.6-7.1,5.4-10.3,8.5l0.6,1.2c3.6-2.7,7.4-5,11.3-7c4.5-2.3,9.2-4.1,13.9-5.4
					c4.8-1.3,9.6-2,14.5-2.2C63.3,11.3,65.4,11.4,67.5,11.5z"/>
				
					<linearGradient id="SVGID_00000101823904339460864070000012681048351005094294_" gradientUnits="userSpaceOnUse" x1="21.4784" y1="17.9549" x2="67.5092" y2="17.9549">
					<stop  offset="0" style="stop-color:#ED3424;stop-opacity:0"/>
					<stop  offset="7.644137e-03" style="stop-color:#C62B1E;stop-opacity:2.135990e-02"/>
					<stop  offset="1.709987e-02" style="stop-color:#9D2218;stop-opacity:4.778191e-02"/>
					<stop  offset="2.773129e-02" style="stop-color:#771A12;stop-opacity:7.748913e-02"/>
					<stop  offset="3.930376e-02" style="stop-color:#57130D;stop-opacity:0.1098"/>
					<stop  offset="5.210482e-02" style="stop-color:#3B0D09;stop-opacity:0.1456"/>
					<stop  offset="6.655718e-02" style="stop-color:#250806;stop-opacity:0.186"/>
					<stop  offset="8.342291e-02" style="stop-color:#140403;stop-opacity:0.2331"/>
					<stop  offset="0.1043" style="stop-color:#090201;stop-opacity:0.2914"/>
					<stop  offset="0.1335" style="stop-color:#020000;stop-opacity:0.3731"/>
					<stop  offset="0.2147" style="stop-color:#000000;stop-opacity:0.6"/>
					<stop  offset="0.4671" style="stop-color:#020000;stop-opacity:0.4044"/>
					<stop  offset="0.5751" style="stop-color:#090201;stop-opacity:0.3208"/>
					<stop  offset="0.6554" style="stop-color:#160503;stop-opacity:0.2585"/>
					<stop  offset="0.7222" style="stop-color:#270906;stop-opacity:0.2068"/>
					<stop  offset="0.7804" style="stop-color:#3F0E0A;stop-opacity:0.1616"/>
					<stop  offset="0.8328" style="stop-color:#5B140E;stop-opacity:0.121"/>
					<stop  offset="0.8808" style="stop-color:#7D1B13;stop-opacity:8.387583e-02"/>
					<stop  offset="0.9253" style="stop-color:#A52419;stop-opacity:4.938930e-02"/>
					<stop  offset="0.9654" style="stop-color:#D02E20;stop-opacity:1.831818e-02"/>
					<stop  offset="0.989" style="stop-color:#ED3424;stop-opacity:0"/>
				</linearGradient>
				<path style="fill:url(#SVGID_00000101823904339460864070000012681048351005094294_);" d="M55.9,10c-13.7,0-26,6.2-34.4,15.9
					c3.6-2.7,7.4-5,11.3-7c4.5-2.3,9.2-4.1,13.9-5.4c4.8-1.3,9.6-2,14.5-2.2c2.1-0.1,4.2,0,6.3,0.1c0,0,0,0,0,0
					C63.8,10.5,59.9,10,55.9,10z"/>
				<g>
					
						<linearGradient id="SVGID_00000167398253045392801950000016591340468594734209_" gradientUnits="userSpaceOnUse" x1="20.6877" y1="13.8716" x2="72.2546" y2="13.8716">
						<stop  offset="0" style="stop-color:#EF4E23"/>
						<stop  offset="2.706938e-02" style="stop-color:#F15F39"/>
						<stop  offset="8.338424e-02" style="stop-color:#F58C71"/>
						<stop  offset="0.1634" style="stop-color:#FBD4CA"/>
						<stop  offset="0.2088" style="stop-color:#FFFFFF"/>
						<stop  offset="0.2525" style="stop-color:#FCE2DB"/>
						<stop  offset="0.3122" style="stop-color:#F9BFB0"/>
						<stop  offset="0.3767" style="stop-color:#F6A18A"/>
						<stop  offset="0.4453" style="stop-color:#F4876A"/>
						<stop  offset="0.5193" style="stop-color:#F27250"/>
						<stop  offset="0.6006" style="stop-color:#F1623C"/>
						<stop  offset="0.6931" style="stop-color:#F0572E"/>
						<stop  offset="0.8062" style="stop-color:#EF5025"/>
						<stop  offset="1" style="stop-color:#EF4E23"/>
					</linearGradient>
					<path style="fill:url(#SVGID_00000167398253045392801950000016591340468594734209_);" d="M31.2,16.5c4.4-3,9-5.7,14-7.7
						c5-2.1,10.2-3.7,15.5-4.6c3.7-0.6,7.4-1,11.2-1.1c0,0,0.4,0,0.4,0l0-0.4c0,0-0.3,0-0.3,0c-3.9,0-7.7,0.4-11.5,1.1
						C55.1,4.7,49.9,6.3,45,8.4c-4.9,2.1-9.6,4.7-13.9,7.7c-3.7,2.6-7.1,5.4-10.3,8.5l-0.1,0.1l0.2,0.3l0.1-0.1
						C24.2,21.9,27.6,19.1,31.2,16.5z"/>
					<path class="st2" d="M55.9,10c-13.7,0-26,6.2-34.4,15.9c0,0-0.1,0.2-0.1,0.2l0.6-0.3c0,0,0.1-0.3,0.1-0.3
						c8.4-9.4,20.4-15.4,33.9-15.4c3.6,0,7.1,0.4,10.5,1.2c0.4,0,0.8,0.1,1.2,0.1c0,0,0,0,0.1,0C63.9,10.5,59.9,10,55.9,10z"/>
				</g>
			</g>
		</g>
	</g>
	<g>
		<g>
			<path class="st10" d="M158.8,20.6c-0.2,0.2-0.4,0.3-0.7,0.3c-0.3,0-0.5-0.1-0.7-0.3c-0.2-0.2-0.3-0.4-0.3-0.7
				c0-0.3,0.1-0.5,0.3-0.7c0.2-0.2,0.4-0.3,0.7-0.3c0.3,0,0.5,0.1,0.7,0.3c0.2,0.2,0.3,0.4,0.3,0.7C159.1,20.2,159,20.4,158.8,20.6z
				 M157.5,19.3c-0.2,0.2-0.2,0.4-0.2,0.6c0,0.2,0.1,0.4,0.2,0.6c0.2,0.2,0.4,0.2,0.6,0.2c0.2,0,0.4-0.1,0.6-0.3
				c0.2-0.2,0.2-0.4,0.2-0.6c0-0.2-0.1-0.4-0.2-0.6c-0.2-0.2-0.4-0.3-0.6-0.3C157.8,19,157.6,19.1,157.5,19.3z M157.6,20.4v-1.1
				c0.1,0,0.2,0,0.3,0c0.1,0,0.2,0,0.2,0c0.1,0,0.2,0,0.2,0.1c0.1,0.1,0.2,0.1,0.2,0.3c0,0.1,0,0.2-0.1,0.2c-0.1,0-0.1,0.1-0.2,0.1
				c0.1,0,0.1,0,0.2,0.1c0.1,0.1,0.1,0.1,0.1,0.3v0.1c0,0,0,0,0,0c0,0,0,0,0,0l0,0h-0.3c0,0,0-0.1,0-0.2c0-0.1,0-0.1,0-0.1
				c0,0,0-0.1-0.1-0.1c0,0-0.1,0-0.1,0l-0.1,0h-0.1v0.4H157.6z M158.2,19.5c0,0-0.1,0-0.2,0h-0.1v0.3h0.1c0.1,0,0.1,0,0.2,0
				c0,0,0.1-0.1,0.1-0.1C158.3,19.6,158.2,19.6,158.2,19.5z"/>
		</g>
		<g>
			<polygon class="st10" points="88.3,15.1 88.3,15.1 88.3,15.1 			"/>
		</g>
		<path class="st10" d="M108.8,20.6v-4.9c0-2.1,1.7-3.9,3.9-3.9h0.5v2h-0.5c-1,0-1.8,0.8-1.8,1.8v4.9H108.8z"/>
		<path class="st10" d="M98.5,20.9c-2.1,0-3.9-1.7-3.9-3.9V10h2v1.8h1.8v1l0,0c0,0.6-0.5,1-1,1l-0.8,0V17c0,1,0.8,1.8,1.8,1.8H99v2
			H98.5z"/>
		<path class="st10" d="M118,20.9c-2.1,0-3.9-1.7-3.9-3.9V10h2v1.8h1.8v1l0,0c0,0.6-0.5,1-1,1l-0.8,0V17c0,1,0.8,1.8,1.8,1.8h0.5v2
			H118z"/>
		<rect x="82.9" y="12" class="st10" width="2" height="8.6"/>
		<path class="st10" d="M82.9,11.3v-2l1,0l0,0c0.5,0,1,0.5,1,1l0,0.1v1H82.9z"/>
		<path class="st10" d="M80.9,20.6c-0.6,0-1-0.5-1-1l0,0l0-4.2c0-0.9-0.7-1.6-1.6-1.6c-0.9,0-1.5,0.7-1.6,1.5l0,0l0,5.2h-2v-5.2
			c0-0.9-0.7-1.6-1.6-1.6c-0.8,0-1.5,0.6-1.5,1.4l0,0v4.7l0,0.2v0.5h-2v-0.7h0v-7.1h1.1l0,0c0.7-0.6,1.5-1,2.5-1
			c0.9,0,1.8,0.4,2.5,1l0.1,0.1l0.1-0.1c0.7-0.6,1.5-1,2.5-1c2,0,3.6,1.6,3.6,3.6l0,5.2L80.9,20.6z"/>
		<path class="st10" d="M134.9,20.6c-0.6,0-1-0.5-1-1l0-0.1l0-3.9c0-1-0.8-1.8-1.8-1.8c-1,0-1.8,0.8-1.8,1.8v5h-2v-7.8h1.2l0,0
			c0.7-0.6,1.6-1,2.6-1c2.1,0,3.8,1.7,3.8,3.9l0,5L134.9,20.6z"/>
		<path class="st10" d="M143.6,20.6c-0.6,0-1-0.5-1-1l0-0.1l0-3.9c0-1-0.8-1.8-1.8-1.8c-1,0-1.8,0.8-1.8,1.8v5h-2v-7.8h1.2l0,0
			c0.7-0.6,1.6-1,2.6-1c2.1,0,3.9,1.7,3.9,3.9l0,5L143.6,20.6z"/>
		<path class="st10" d="M93.1,16.5c-0.4-0.4-1.1-0.7-2-0.9c-1.4-0.3-2.2-0.5-2.5-0.7c-0.3-0.1-0.4-0.4-0.4-0.7
			c0-0.3,0.1-0.5,0.4-0.7c0.2-0.2,0.6-0.3,1.2-0.3c0.7,0,1.3,0.2,1.5,0.7c0.2,0.3,0.5,0.5,0.9,0.5h0l0,0h1.3c-0.1-0.9-0.5-1.6-1.1-2
			c-0.7-0.4-1.6-0.6-2.6-0.6c-1.1,0-2,0.3-2.6,0.8c-0.6,0.6-0.9,1.2-0.9,2c0,0.7,0.2,1.1,0.6,1.5c0.4,0.4,1.1,0.7,2.1,0.9
			c1.9,0.5,2.3,0.6,2.5,0.7c0.3,0.2,0.4,0.4,0.4,0.7c0,0.3-0.2,0.6-0.5,0.8c-0.3,0.1-0.7,0.2-1.2,0.2c-0.8,0-1.4-0.2-1.7-0.5
			c-0.1-0.1-0.2-0.3-0.3-0.6h-2.1c0.1,0.7,0.4,1.3,0.9,1.7c0.6,0.6,1.6,0.8,3,0.8c1.3,0,2.3-0.3,2.9-0.8c0.6-0.5,0.9-1.2,0.9-2
			C93.7,17.4,93.5,16.9,93.1,16.5z"/>
		<path class="st10" d="M107.7,15.2c-0.1-0.7-0.3-1.3-0.7-1.8c-0.4-0.6-0.9-1-1.5-1.3c-0.6-0.3-1.3-0.4-2-0.4
			c-1.3,0-2.3,0.4-3.1,1.2c-0.8,0.8-1.2,1.9-1.2,3.4c0,1.6,0.4,2.7,1.3,3.4c0.9,0.7,1.9,1.1,3,1.1c1.4,0,2.5-0.4,3.2-1.2
			c0.4-0.5,0.7-0.9,0.8-1.3c0,0-0.9,0-1.4,0c-0.4,0-0.7,0-1,0.5c-0.4,0.4-1.1,0.6-1.5,0.6c-0.5,0-1-0.1-1.4-0.4c-0.6-0.4-1-1.1-1-2
			l0-0.2h6.5C107.8,16.1,107.8,15.6,107.7,15.2z M101.4,15.3c0.1-0.5,0.3-1,0.6-1.3c0.4-0.4,0.9-0.6,1.5-0.6c0.6,0,1.1,0.2,1.5,0.5
			c0.4,0.3,0.6,0.8,0.7,1.4H101.4z"/>
		<path class="st10" d="M127.2,15.2c-0.1-0.7-0.3-1.3-0.7-1.8c-0.4-0.6-0.9-1-1.5-1.3c-0.6-0.3-1.3-0.4-2-0.4
			c-1.3,0-2.3,0.4-3.1,1.2c-0.8,0.8-1.2,1.9-1.2,3.4c0,1.6,0.4,2.7,1.3,3.4c0.9,0.7,1.9,1.1,3,1.1c1.4,0,2.5-0.4,3.2-1.2
			c0.4-0.5,0.7-0.9,0.8-1.3c0,0-0.9,0-1.4,0c-0.4,0-0.7,0-1,0.5c-0.4,0.4-1.1,0.6-1.5,0.6c-0.5,0-1-0.1-1.4-0.4c-0.6-0.4-1-1.1-1-2
			l0-0.2h6.5C127.3,16.1,127.3,15.6,127.2,15.2z M120.9,15.3c0.1-0.5,0.3-1,0.6-1.3c0.4-0.4,0.9-0.6,1.5-0.6c0.6,0,1.1,0.2,1.5,0.5
			c0.4,0.3,0.6,0.8,0.7,1.4H120.9z"/>
		<rect x="145.6" y="12" class="st10" width="2" height="8.6"/>
		<path class="st10" d="M145.6,11.3v-2l1,0l0,0c0.5,0,1,0.5,1,1l0,0.1v1H145.6z"/>
		<path class="st10" d="M155.8,16.5c-0.4-0.4-1.1-0.7-2-0.9c-1.4-0.3-2.2-0.5-2.5-0.7c-0.3-0.1-0.4-0.4-0.4-0.7
			c0-0.3,0.1-0.5,0.4-0.7c0.2-0.2,0.6-0.3,1.2-0.3c0.7,0,1.3,0.2,1.5,0.7c0.2,0.3,0.5,0.5,0.9,0.5h0c0,0,0,0,0,0h1.3
			c-0.1-0.9-0.5-1.6-1.1-2c-0.7-0.4-1.6-0.6-2.6-0.6c-1.1,0-2,0.3-2.6,0.8c-0.6,0.6-0.9,1.2-0.9,2c0,0.7,0.2,1.1,0.6,1.5
			c0.4,0.4,1.1,0.7,2.1,0.9c1.9,0.5,2.3,0.6,2.5,0.7c0.3,0.2,0.4,0.4,0.4,0.7c0,0.3-0.2,0.6-0.5,0.8c-0.3,0.1-0.7,0.2-1.2,0.2
			c-0.8,0-1.4-0.2-1.7-0.5c-0.1-0.1-0.2-0.3-0.3-0.6h-2.1c0.1,0.7,0.4,1.3,0.9,1.7c0.6,0.6,1.6,0.8,3,0.8c1.3,0,2.3-0.3,2.9-0.8
			c0.6-0.5,0.9-1.2,0.9-2C156.4,17.4,156.2,16.9,155.8,16.5z"/>
	</g>
</g>
</svg>
